<?xml version="1.0" encoding="utf-8" ?>
<svg baseProfile="full" height="13cm" version="1.1" width="13cm" xmlns="http://www.w3.org/2000/svg" xmlns:ev="http://www.w3.org/2001/xml-events" xmlns:xlink="http://www.w3.org/1999/xlink"><defs /><circle cx="6.5cm" cy="6.5cm" fill="rgb(255,255,255)" r="6.5cm" stroke="black" stroke-width="0.1cm" /><rect fill="rgb(0,0,0)" height="1.7cm" width="1.7cm" x="2.25cm" y="2.25cm" /><rect fill="rgb(0,0,0)" height="1.7cm" width="1.7cm" x="3.95cm" y="2.25cm" /><rect fill="rgb(0,0,0)" height="1.7cm" width="1.7cm" x="5.65cm" y="2.25cm" /><rect fill="rgb(0,0,0)" height="1.7cm" width="1.7cm" x="7.35cm" y="2.25cm" /><rect fill="rgb(0,0,0)" height="1.7cm" width="1.7cm" x="9.05cm" y="2.25cm" /><rect fill="rgb(0,0,0)" height="1.7cm" width="1.7cm" x="2.25cm" y="3.95cm" /><rect fill="rgb(255,255,255)" height="1.7cm" width="1.7cm" x="3.95cm" y="3.95cm" /><rect fill="rgb(255,255,255)" height="1.7cm" width="1.7cm" x="5.65cm" y="3.95cm" /><rect fill="rgb(0,0,0)" height="1.7cm" width="1.7cm" x="7.35cm" y="3.95cm" /><rect fill="rgb(0,0,0)" height="1.7cm" width="1.7cm" x="9.05cm" y="3.95cm" /><rect fill="rgb(0,0,0)" height="1.7cm" width="1.7cm" x="2.25cm" y="5.65cm" /><rect fill="rgb(255,255,255)" height="1.7cm" width="1.7cm" x="3.95cm" y="5.65cm" /><rect fill="rgb(255,255,255)" height="1.7cm" width="1.7cm" x="5.65cm" y="5.65cm" /><rect fill="rgb(0,0,0)" height="1.7cm" width="1.7cm" x="7.35cm" y="5.65cm" /><rect fill="rgb(0,0,0)" height="1.7cm" width="1.7cm" x="9.05cm" y="5.65cm" /><rect fill="rgb(0,0,0)" height="1.7cm" width="1.7cm" x="2.25cm" y="7.35cm" /><rect fill="rgb(255,255,255)" height="1.7cm" width="1.7cm" x="3.95cm" y="7.35cm" /><rect fill="rgb(255,255,255)" height="1.7cm" width="1.7cm" x="5.65cm" y="7.35cm" /><rect fill="rgb(0,0,0)" height="1.7cm" width="1.7cm" x="7.35cm" y="7.35cm" /><rect fill="rgb(0,0,0)" height="1.7cm" width="1.7cm" x="9.05cm" y="7.35cm" /><rect fill="rgb(0,0,0)" height="1.7cm" width="1.7cm" x="2.25cm" y="9.05cm" /><rect fill="rgb(0,0,0)" height="1.7cm" width="1.7cm" x="3.95cm" y="9.05cm" /><rect fill="rgb(0,0,0)" height="1.7cm" width="1.7cm" x="5.65cm" y="9.05cm" /><rect fill="rgb(0,0,0)" height="1.7cm" width="1.7cm" x="7.35cm" y="9.05cm" /><rect fill="rgb(0,0,0)" height="1.7cm" width="1.7cm" x="9.05cm" y="9.05cm" /></svg>