<?xml version="1.0" encoding="utf-8" ?>
<svg baseProfile="full" height="29.7cm" version="1.1" width="21cm" xmlns="http://www.w3.org/2000/svg" xmlns:ev="http://www.w3.org/2001/xml-events" xmlns:xlink="http://www.w3.org/1999/xlink"><defs /><circle cx="10.5cm" cy="7.5cm" fill="rgb(255,255,255)" r="6.5cm" stroke="black" stroke-width="0.1cm" /><circle cx="10.5cm" cy="22.2cm" fill="rgb(255,255,255)" r="6.5cm" stroke="black" stroke-width="0.1cm" /><rect fill="rgb(0,0,0)" height="1.7cm" stroke="rgb(0,0,0)" width="1.7cm" x="6.25cm" y="3.25cm" /><rect fill="rgb(0,0,0)" height="1.7cm" stroke="rgb(0,0,0)" width="1.7cm" x="6.25cm" y="17.95cm" /><rect fill="rgb(0,0,0)" height="1.7cm" stroke="rgb(0,0,0)" width="1.7cm" x="7.95cm" y="3.25cm" /><rect fill="rgb(0,0,0)" height="1.7cm" stroke="rgb(0,0,0)" width="1.7cm" x="7.95cm" y="17.95cm" /><rect fill="rgb(0,0,0)" height="1.7cm" stroke="rgb(0,0,0)" width="1.7cm" x="9.65cm" y="3.25cm" /><rect fill="rgb(0,0,0)" height="1.7cm" stroke="rgb(0,0,0)" width="1.7cm" x="9.65cm" y="17.95cm" /><rect fill="rgb(0,0,0)" height="1.7cm" stroke="rgb(0,0,0)" width="1.7cm" x="11.35cm" y="3.25cm" /><rect fill="rgb(0,0,0)" height="1.7cm" stroke="rgb(0,0,0)" width="1.7cm" x="11.35cm" y="17.95cm" /><rect fill="rgb(0,0,0)" height="1.7cm" stroke="rgb(0,0,0)" width="1.7cm" x="13.05cm" y="3.25cm" /><rect fill="rgb(0,0,0)" height="1.7cm" stroke="rgb(0,0,0)" width="1.7cm" x="13.05cm" y="17.95cm" /><rect fill="rgb(0,0,0)" height="1.7cm" stroke="rgb(0,0,0)" width="1.7cm" x="6.25cm" y="4.95cm" /><rect fill="rgb(0,0,0)" height="1.7cm" stroke="rgb(0,0,0)" width="1.7cm" x="6.25cm" y="19.65cm" /><rect fill="rgb(255,255,255)" height="1.7cm" stroke="rgb(255,255,255)" width="1.7cm" x="7.95cm" y="4.95cm" /><rect fill="rgb(255,255,255)" height="1.7cm" stroke="rgb(255,255,255)" width="1.7cm" x="7.95cm" y="19.65cm" /><rect fill="rgb(255,255,255)" height="1.7cm" stroke="rgb(255,255,255)" width="1.7cm" x="9.65cm" y="4.95cm" /><rect fill="rgb(255,255,255)" height="1.7cm" stroke="rgb(255,255,255)" width="1.7cm" x="9.65cm" y="19.65cm" /><rect fill="rgb(0,0,0)" height="1.7cm" stroke="rgb(0,0,0)" width="1.7cm" x="11.35cm" y="4.95cm" /><rect fill="rgb(255,255,255)" height="1.7cm" stroke="rgb(255,255,255)" width="1.7cm" x="11.35cm" y="19.65cm" /><rect fill="rgb(0,0,0)" height="1.7cm" stroke="rgb(0,0,0)" width="1.7cm" x="13.05cm" y="4.95cm" /><rect fill="rgb(0,0,0)" height="1.7cm" stroke="rgb(0,0,0)" width="1.7cm" x="13.05cm" y="19.65cm" /><rect fill="rgb(0,0,0)" height="1.7cm" stroke="rgb(0,0,0)" width="1.7cm" x="6.25cm" y="6.65cm" /><rect fill="rgb(0,0,0)" height="1.7cm" stroke="rgb(0,0,0)" width="1.7cm" x="6.25cm" y="21.349999999999998cm" /><rect fill="rgb(0,0,0)" height="1.7cm" stroke="rgb(0,0,0)" width="1.7cm" x="7.95cm" y="6.65cm" /><rect fill="rgb(0,0,0)" height="1.7cm" stroke="rgb(0,0,0)" width="1.7cm" x="7.95cm" y="21.349999999999998cm" /><rect fill="rgb(255,255,255)" height="1.7cm" stroke="rgb(255,255,255)" width="1.7cm" x="9.65cm" y="6.65cm" /><rect fill="rgb(255,255,255)" height="1.7cm" stroke="rgb(255,255,255)" width="1.7cm" x="9.65cm" y="21.349999999999998cm" /><rect fill="rgb(255,255,255)" height="1.7cm" stroke="rgb(255,255,255)" width="1.7cm" x="11.35cm" y="6.65cm" /><rect fill="rgb(0,0,0)" height="1.7cm" stroke="rgb(0,0,0)" width="1.7cm" x="11.35cm" y="21.349999999999998cm" /><rect fill="rgb(0,0,0)" height="1.7cm" stroke="rgb(0,0,0)" width="1.7cm" x="13.05cm" y="6.65cm" /><rect fill="rgb(0,0,0)" height="1.7cm" stroke="rgb(0,0,0)" width="1.7cm" x="13.05cm" y="21.349999999999998cm" /><rect fill="rgb(0,0,0)" height="1.7cm" stroke="rgb(0,0,0)" width="1.7cm" x="6.25cm" y="8.35cm" /><rect fill="rgb(0,0,0)" height="1.7cm" stroke="rgb(0,0,0)" width="1.7cm" x="6.25cm" y="23.049999999999997cm" /><rect fill="rgb(255,255,255)" height="1.7cm" stroke="rgb(255,255,255)" width="1.7cm" x="7.95cm" y="8.35cm" /><rect fill="rgb(255,255,255)" height="1.7cm" stroke="rgb(255,255,255)" width="1.7cm" x="7.95cm" y="23.049999999999997cm" /><rect fill="rgb(255,255,255)" height="1.7cm" stroke="rgb(255,255,255)" width="1.7cm" x="9.65cm" y="8.35cm" /><rect fill="rgb(255,255,255)" height="1.7cm" stroke="rgb(255,255,255)" width="1.7cm" x="9.65cm" y="23.049999999999997cm" /><rect fill="rgb(255,255,255)" height="1.7cm" stroke="rgb(255,255,255)" width="1.7cm" x="11.35cm" y="8.35cm" /><rect fill="rgb(0,0,0)" height="1.7cm" stroke="rgb(0,0,0)" width="1.7cm" x="11.35cm" y="23.049999999999997cm" /><rect fill="rgb(0,0,0)" height="1.7cm" stroke="rgb(0,0,0)" width="1.7cm" x="13.05cm" y="8.35cm" /><rect fill="rgb(0,0,0)" height="1.7cm" stroke="rgb(0,0,0)" width="1.7cm" x="13.05cm" y="23.049999999999997cm" /><rect fill="rgb(0,0,0)" height="1.7cm" stroke="rgb(0,0,0)" width="1.7cm" x="6.25cm" y="10.05cm" /><rect fill="rgb(0,0,0)" height="1.7cm" stroke="rgb(0,0,0)" width="1.7cm" x="6.25cm" y="24.75cm" /><rect fill="rgb(0,0,0)" height="1.7cm" stroke="rgb(0,0,0)" width="1.7cm" x="7.95cm" y="10.05cm" /><rect fill="rgb(0,0,0)" height="1.7cm" stroke="rgb(0,0,0)" width="1.7cm" x="7.95cm" y="24.75cm" /><rect fill="rgb(0,0,0)" height="1.7cm" stroke="rgb(0,0,0)" width="1.7cm" x="9.65cm" y="10.05cm" /><rect fill="rgb(0,0,0)" height="1.7cm" stroke="rgb(0,0,0)" width="1.7cm" x="9.65cm" y="24.75cm" /><rect fill="rgb(0,0,0)" height="1.7cm" stroke="rgb(0,0,0)" width="1.7cm" x="11.35cm" y="10.05cm" /><rect fill="rgb(0,0,0)" height="1.7cm" stroke="rgb(0,0,0)" width="1.7cm" x="11.35cm" y="24.75cm" /><rect fill="rgb(0,0,0)" height="1.7cm" stroke="rgb(0,0,0)" width="1.7cm" x="13.05cm" y="10.05cm" /><rect fill="rgb(0,0,0)" height="1.7cm" stroke="rgb(0,0,0)" width="1.7cm" x="13.05cm" y="24.75cm" /></svg>